<svg width="51" height="55" viewBox="0 0 51 55" fill="none" xmlns="http://www.w3.org/2000/svg">
<path fill-rule="evenodd" clip-rule="evenodd" d="M14.0832 48.9676C12.6585 48.2212 11.3016 47.0679 9.94467 45.8466L9.74113 45.6431L9.46975 45.4396C5.87394 42.3865 3.36365 38.248 2.82088 32.4811C2.21027 26.1036 4.72055 21.1509 7.63791 17.8264C10.5553 14.502 14.8295 11.6525 20.7321 11.1776C27.1096 10.6348 32.2659 13.0772 35.5903 15.9946C38.9826 18.9798 41.5607 23.3219 42.1035 29.0888C42.1035 27.9354 42.0356 26.7142 41.8999 25.493C41.4929 22.6435 40.136 19.1155 38.1006 16.4017C37.8292 15.9946 35.9974 13.62 33.6906 12.1953C29.7556 9.41358 25.0742 7.98882 20.1893 8.53158C17.2041 8.80296 13.8797 9.82065 10.9624 11.5846C8.11284 13.2808 6.00962 15.3161 4.38133 17.555C2.75303 19.794 1.59966 22.1007 0.85336 24.6788C0.107059 27.1891 -0.0964813 29.8351 0.0392099 32.6168C0.310592 35.1271 0.989049 38.0444 2.34596 40.8939C3.77072 43.8113 5.60255 46.1859 7.43438 47.9499C11.1659 51.6135 15.6437 53.6489 20.2572 54.463C20.8 54.5987 23.0389 54.8023 24.3279 54.8701C28.4665 54.8701 33.5549 53.7846 38.4398 50.7315C44.2067 47.1357 48.2096 39.7406 49.2951 37.0946C51.3305 30.9206 51.7375 24.1361 47.8025 15.9268C47.8025 15.9268 45.835 12.1953 45.3601 11.856C45.1565 11.5846 44.8851 11.3133 44.6816 10.974C40.3395 5.68207 37.1507 4.25731 33.6906 2.42548C33.5549 2.35763 33.3514 2.28979 33.1479 2.1541C32.3337 1.88272 31.3839 1.5435 30.434 1.20427C27.2453 0.322275 23.853 0.0508842 23.7173 0.0508842C22.8353 -0.0169614 21.9533 -0.0169614 21.0035 0.0508842L20.8678 0.79719C22.0212 0.79719 23.1067 0.932877 24.1922 1.06857H24.3279C24.735 1.13641 26.7704 1.20426 30.0948 2.49333L30.3662 2.62902L30.5697 2.69687C31.6553 3.10394 32.8765 3.6467 33.8942 4.18947H33.8263C34.0299 4.32516 34.2334 4.39301 34.4369 4.5287L34.7083 4.66439L35.0475 4.86792L35.1832 4.93577L35.3868 5.07146C39.5253 7.5139 41.8999 10.3634 43.4604 12.738L43.5961 12.9415C43.7318 13.1451 44.0032 13.5522 44.0032 13.5522C44.4102 14.1628 44.8173 14.9091 45.2244 15.5875C45.7671 16.4695 45.9028 16.8766 46.1742 17.4872C46.4456 18.1657 48.4131 22.3042 48.2774 29.1566C48.2774 29.6994 47.9382 32.1419 47.6668 33.2274C47.124 35.6698 46.1742 38.0444 44.8851 40.2833C44.6816 40.6904 44.2067 41.301 44.071 41.5045C43.9353 41.7081 43.7996 41.9795 43.5961 42.183C43.4604 42.3865 42.8498 43.1328 42.7141 43.2685C40.3395 46.0502 36.8115 48.8997 32.1302 50.5958C26.5668 52.5634 21.5463 52.0206 17.2041 50.4602C16.3222 50.1209 15.3723 49.7138 14.626 49.2389" fill="white"/>
<path fill-rule="evenodd" clip-rule="evenodd" d="M8.24949 35.3306C8.38518 34.8556 8.52087 34.3807 8.8601 33.9058C9.94563 32.6167 11.9131 32.6167 12.9308 33.9058C13.0665 34.0415 13.1344 34.1093 13.3379 34.0415C14.4913 33.6344 15.6447 33.2952 16.798 32.8881L17.1373 32.7524C17.2729 33.1595 17.4086 33.5666 17.5443 33.9737C16.1874 34.4486 14.8305 34.8556 13.4736 35.3306C13.4736 35.8733 13.4058 36.3483 13.1344 36.8232C12.5916 37.773 11.5061 38.3158 10.3527 38.1122C9.33501 37.9765 8.45303 37.0267 8.24949 36.009L8.18164 35.8055L8.24949 35.3306Z" fill="white"/>
<path fill-rule="evenodd" clip-rule="evenodd" d="M37.4226 32.9559C37.2869 33.4987 37.1512 34.0415 36.7442 34.4485C36.0657 35.1948 35.2516 35.4662 34.3017 35.2627C33.284 35.0591 32.6056 34.4485 32.3342 33.4309C32.2664 33.1595 32.1307 33.0916 31.8593 33.0238C30.9095 32.9559 29.9596 32.8202 29.0098 32.7524C29.0776 32.3453 29.0776 31.8704 29.1455 31.4633C29.6204 31.5312 30.1631 31.5312 30.6381 31.599C31.1808 31.6669 31.6558 31.6669 32.1985 31.7347C32.3342 31.7347 32.402 31.6669 32.4699 31.5312C32.9448 30.5813 33.759 30.0386 34.8445 30.0386C35.93 30.0386 36.7442 30.5813 37.2191 31.599C37.3548 31.8704 37.3548 32.1418 37.4905 32.3453V32.9559" fill="white"/>
<path fill-rule="evenodd" clip-rule="evenodd" d="M18.5605 31.5312C18.5605 29.0209 20.5959 26.9856 23.1062 27.0534C25.5486 27.0534 27.584 29.0888 27.584 31.5312C27.584 34.0415 25.5486 36.009 23.0384 36.009C20.5959 36.009 18.5605 33.9737 18.5605 31.5312Z" fill="white"/>
<path fill-rule="evenodd" clip-rule="evenodd" d="M26.7022 26.7141C26.2951 26.5106 25.9559 26.2392 25.5488 26.0357L25.6845 25.7643C26.363 24.6109 27.0414 23.4576 27.7877 22.3042C27.8556 22.1685 27.8556 22.0328 27.7877 21.8971C27.0414 20.9473 26.9736 19.8617 27.5842 18.8441C28.127 17.9621 29.2125 17.4871 30.3659 17.6907C31.3835 17.8942 32.2655 18.7762 32.4012 19.7939C32.6048 20.8794 32.062 22.0328 31.1122 22.5077C30.5694 22.8469 29.9588 22.9148 29.2803 22.7791C29.0768 22.7112 29.009 22.7791 28.9411 22.9148C28.2627 24.0682 27.5842 25.2215 26.9057 26.3749L26.7022 26.7141Z" fill="white"/>
<path fill-rule="evenodd" clip-rule="evenodd" d="M23.7855 37.5016C24.1926 37.4338 24.5997 37.2981 25.0746 37.2302C25.2103 37.8408 25.346 38.4514 25.4816 39.0621C25.5495 39.4013 25.6852 39.8084 25.753 40.1476C25.8209 40.3511 25.8887 40.419 26.0923 40.4868C27.1778 40.6904 27.9919 41.301 28.2633 42.3865C28.5347 43.3363 28.2633 44.2183 27.5849 44.8968C26.9064 45.5752 26.0244 45.8466 25.0067 45.5752C23.9212 45.3039 23.3106 44.5575 23.1071 43.472C22.9035 42.3865 23.3784 41.4367 24.3283 40.826C24.464 40.7582 24.464 40.6225 24.464 40.4868C24.2604 39.537 24.0569 38.655 23.8534 37.7051L23.7855 37.5016Z" fill="white"/>
<path fill-rule="evenodd" clip-rule="evenodd" d="M19.1711 26.9177C18.8998 27.2569 18.5605 27.5283 18.2892 27.8675C17.7464 27.3926 17.2715 26.9177 16.7966 26.4428C16.6609 26.3071 16.5252 26.2392 16.3216 26.3749C15.1683 26.9855 13.6757 26.5106 12.9972 25.4251C12.2509 24.3396 12.4544 22.7791 13.4721 21.965C14.422 21.2187 15.7789 21.1508 16.6609 21.8293C17.6785 22.5756 18.0178 23.8646 17.5429 25.018C17.475 25.1537 17.475 25.2894 17.6107 25.3572C18.0856 25.9 18.6284 26.4428 19.1711 26.9177Z" fill="white"/>
</svg>
