<svg width="230" height="101" viewBox="0 0 230 101" fill="none" xmlns="http://www.w3.org/2000/svg">
<path d="M206.645 78.7285L205.488 79.6148C203.377 77.5013 200.857 76.4104 197.793 76.4104C194.524 76.4104 191.868 77.5013 189.825 79.6148C187.85 81.6601 186.829 84.3191 186.829 87.5234C186.829 90.7278 187.782 93.3867 189.757 95.4321C191.8 97.5456 194.456 98.6365 197.724 98.6365C200.721 98.6365 203.24 97.5456 205.419 95.2957L206.237 96.6593C203.853 98.9092 200.993 100 197.724 100C193.979 100 190.915 98.841 188.599 96.4547C186.284 94.1367 185.194 91.1369 185.194 87.4553C185.194 83.8418 186.352 80.842 188.667 78.4558C190.983 76.0695 194.047 74.9105 197.793 74.9105C201.197 75.1151 204.194 76.2741 206.645 78.7285Z" fill="white" stroke="white" stroke-width="1.22613" stroke-miterlimit="10"/>
<path d="M226.938 99.7273H225.371V87.6598H211.956V99.7273H210.39V84.0464C210.39 81.3874 211.071 79.2739 212.433 77.6377C213.863 75.9332 215.974 75.0469 218.63 75.0469C221.285 75.0469 223.328 75.9332 224.826 77.7058C226.188 79.3421 226.869 81.4556 226.869 84.0464L226.938 99.7273ZM225.371 86.3644V84.5918C225.371 79.2057 223.124 76.4786 218.698 76.4786C214.203 76.4786 211.956 79.2057 211.956 84.5918V86.3644H225.371Z" fill="white" stroke="white" stroke-width="1.22613" stroke-miterlimit="10"/>
<path fill-rule="evenodd" clip-rule="evenodd" d="M14.6777 49.2075C13.2476 48.4575 11.8857 47.2985 10.5237 46.0713L10.3194 45.8667L10.0471 45.6622C6.43788 42.5942 3.91826 38.4353 3.37348 32.6402C2.7606 26.2315 5.28021 21.2545 8.20841 17.9138C11.1366 14.5731 15.4268 11.7096 21.3513 11.2323C27.7524 10.6869 32.9279 13.1413 36.2647 16.073C39.6695 19.0728 42.2573 23.4362 42.802 29.2313C42.802 28.0723 42.7339 26.8451 42.5977 25.6179C42.1892 22.7544 40.8272 19.2092 38.7843 16.482C38.5119 16.073 36.6732 13.6867 34.3579 12.255C30.4083 9.4597 25.7095 8.02796 20.8065 8.57338C17.8102 8.84609 14.4734 9.86876 11.5452 11.6414C8.6851 13.3458 6.57407 15.3912 4.93972 17.6411C3.30538 19.8909 2.14772 22.209 1.39865 24.7997C0.649571 27.3223 0.445274 29.9813 0.58147 32.7766C0.853861 35.2991 1.53484 38.2308 2.89679 41.0943C4.32684 44.0259 6.16549 46.4122 8.00412 48.1848C11.7495 51.8664 16.2439 53.9117 20.8746 54.7299C21.4194 54.8662 23.6666 55.0708 24.9604 55.1389C29.1144 55.1389 34.2217 54.0481 39.1248 50.9801C44.9131 47.3667 48.9308 39.9353 50.0204 37.2763C52.0633 31.0721 52.4719 24.2543 48.5222 16.0048C48.5222 16.0048 46.5474 12.255 46.0707 11.9141C45.8664 11.6414 45.594 11.3687 45.3897 11.0278C41.0315 5.70991 37.8309 4.27817 34.3579 2.43736C34.2217 2.36918 34.0174 2.30101 33.8131 2.16465C32.996 1.89194 32.0426 1.55106 31.0892 1.21017C27.8886 0.323854 24.4838 0.0511335 24.3476 0.0511335C23.4623 -0.0170445 22.577 -0.0170445 21.6237 0.0511335L21.4875 0.801095C22.6451 0.801095 23.7347 0.937447 24.8242 1.0738H24.9604C25.369 1.14198 27.412 1.21016 30.7487 2.50554L31.0211 2.6419L31.2254 2.71008C32.315 3.11915 33.5408 3.66457 34.5622 4.20999H34.4941C34.6984 4.34635 34.9027 4.41453 35.107 4.55088L35.3794 4.68724L35.7199 4.89177L35.8561 4.95996L36.0604 5.09631C40.2143 7.55072 42.5977 10.4142 44.164 12.8004L44.3002 13.005C44.4364 13.2095 44.7088 13.6186 44.7088 13.6186C45.1174 14.2322 45.5259 14.9821 45.9345 15.6639C46.4793 16.5502 46.6155 16.9593 46.8879 17.5729C47.1603 18.2547 49.1351 22.4135 48.9989 29.2995C48.9989 29.8449 48.6584 32.2993 48.386 33.3902C47.8413 35.8446 46.8879 38.2308 45.594 40.4807C45.3897 40.8897 44.9131 41.5033 44.7769 41.7079C44.6407 41.9124 44.5045 42.1851 44.3002 42.3897C44.164 42.5942 43.5511 43.3442 43.4149 43.4805C41.0315 46.2758 37.4904 49.1393 32.7917 50.8437C27.2077 52.8209 22.1684 52.2755 17.8102 50.7074C16.9249 50.3665 15.9715 49.9574 15.2225 49.4802" fill="white"/>
<path fill-rule="evenodd" clip-rule="evenodd" d="M8.82176 35.5037C8.95796 35.0265 9.09415 34.5492 9.43464 34.072C10.5242 32.7766 12.499 32.7766 13.5205 34.072C13.6567 34.2083 13.7248 34.2765 13.9291 34.2083C15.0868 33.7993 16.2444 33.4584 17.4021 33.0493L17.7426 32.913C17.8787 33.322 18.0149 33.7311 18.1511 34.1402C16.7892 34.6174 15.4272 35.0265 14.0653 35.5037C14.0653 36.0491 13.9972 36.5264 13.7248 37.0036C13.18 37.9581 12.0904 38.5036 10.9328 38.299C9.91132 38.1627 9.02606 37.2082 8.82176 36.1855L8.75366 35.981L8.82176 35.5037Z" fill="white"/>
<path fill-rule="evenodd" clip-rule="evenodd" d="M38.1033 33.1174C37.9671 33.6629 37.8309 34.2083 37.4223 34.6174C36.7413 35.3673 35.9242 35.64 34.9708 35.4355C33.9493 35.231 33.2684 34.6174 32.996 33.5947C32.9279 33.322 32.7917 33.2538 32.5193 33.1856C31.5659 33.1174 30.6125 32.9811 29.6592 32.9129C29.7273 32.5038 29.7273 32.0266 29.7954 31.6175C30.2721 31.6857 30.8168 31.6857 31.2935 31.7539C31.8383 31.8221 32.315 31.8221 32.8598 31.8902C32.996 31.8902 33.0641 31.8221 33.1322 31.6857C33.6089 30.7312 34.426 30.1858 35.5156 30.1858C36.6051 30.1858 37.4223 30.7312 37.899 31.7539C38.0352 32.0266 38.0352 32.2993 38.1714 32.5038V33.1174" fill="white"/>
<path fill-rule="evenodd" clip-rule="evenodd" d="M19.1722 31.6856C19.1722 29.163 21.2152 27.1177 23.7348 27.1859C26.1863 27.1859 28.2292 29.2312 28.2292 31.6856C28.2292 34.2082 26.1863 36.1854 23.6667 36.1854C21.2152 36.1854 19.1722 34.14 19.1722 31.6856Z" fill="white"/>
<path fill-rule="evenodd" clip-rule="evenodd" d="M27.3436 26.845C26.935 26.6405 26.5945 26.3678 26.1859 26.1632L26.3221 25.8905C27.0031 24.7315 27.6841 23.5725 28.4331 22.4134C28.5012 22.2771 28.5012 22.1407 28.4331 22.0044C27.6841 21.0499 27.616 19.959 28.2288 18.9364C28.7736 18.0501 29.8632 17.5728 31.0208 17.7773C32.0423 17.9819 32.9276 18.8682 33.0638 19.8909C33.2681 20.9817 32.7233 22.1407 31.7699 22.618C31.2251 22.9589 30.6123 23.027 29.9313 22.8907C29.727 22.8225 29.6589 22.8907 29.5908 23.027C28.9098 24.1861 28.2288 25.3451 27.5479 26.5041L27.3436 26.845Z" fill="white"/>
<path fill-rule="evenodd" clip-rule="evenodd" d="M24.4156 37.6854C24.8242 37.6173 25.2328 37.4809 25.7095 37.4127C25.8457 38.0263 25.9819 38.6399 26.1181 39.2535C26.1862 39.5944 26.3224 40.0035 26.3905 40.3444C26.4586 40.5489 26.5267 40.6171 26.731 40.6853C27.8205 40.8898 28.6377 41.5034 28.9101 42.5943C29.1825 43.5487 28.9101 44.4351 28.2291 45.1168C27.5481 45.7986 26.6629 46.0713 25.6414 45.7986C24.5518 45.5259 23.939 44.7759 23.7347 43.6851C23.5304 42.5942 24.0071 41.6398 24.9604 41.0262C25.0966 40.958 25.0966 40.8216 25.0966 40.6853C24.8923 39.7308 24.688 38.8445 24.4837 37.89L24.4156 37.6854Z" fill="white"/>
<path fill-rule="evenodd" clip-rule="evenodd" d="M19.7857 27.0497C19.5133 27.3905 19.1729 27.6633 18.9005 28.0041C18.3557 27.5269 17.879 27.0497 17.4023 26.5724C17.2661 26.4361 17.1299 26.3679 16.9256 26.5042C15.768 27.1178 14.2698 26.6406 13.5888 25.5497C12.8398 24.4589 13.0441 22.8908 14.0655 22.0727C15.0189 21.3227 16.3808 21.2545 17.2661 21.9363C18.2876 22.6863 18.6281 23.9816 18.1514 25.1407C18.0833 25.277 18.0833 25.4134 18.2195 25.4816C18.6962 26.027 19.2409 26.5724 19.7857 27.0497Z" fill="white"/>
<path d="M63.0948 28.345H60.7114V66.5928H63.0948V28.345Z" fill="white"/>
<path d="M63.0956 66.5929V66.3883H60.9165V28.4814H62.8914V66.5929H63.0956V66.3883V66.5929H63.2999V28.1405H60.5079V66.7974H63.2999V66.5929H63.0956Z" fill="white"/>
<path d="M92.1052 66.5928H89.926V51.2528C89.926 48.662 89.177 46.5485 87.7469 44.9122C86.2488 43.1396 84.2058 42.3215 81.6181 42.3215C79.0985 42.3215 77.0556 43.0714 75.5574 44.6395C74.0593 46.2076 73.3102 48.1848 73.3102 50.7074V66.5928H71.063V40.6852H73.3102V44.2304C75.2169 41.5715 78.009 40.2761 81.6181 40.2761C85.023 40.2761 87.6107 41.4351 89.5175 43.685C91.288 45.7985 92.1052 48.5257 92.1052 52.0027V66.5928Z" fill="white"/>
<path d="M92.1048 66.5928V66.3882H90.1299V51.2527C90.1299 48.5938 89.3808 46.4803 87.8827 44.7758C86.3165 43.0032 84.2054 42.1169 81.6177 42.1169C79.03 42.1169 76.9871 42.8668 75.4208 44.4349C73.9227 46.003 73.1055 48.1165 73.1055 50.6391V66.3882H71.2669V40.8897H73.1055V44.844L73.446 44.3667C75.3527 41.776 78.0085 40.4806 81.5496 40.4806C84.8864 40.4806 87.406 41.5714 89.2447 43.8213C90.9471 45.8667 91.8324 48.5938 91.8324 52.0027V66.5928H92.1048H92.309V52.0027C92.309 48.5256 91.4238 45.6621 89.6532 43.5486C87.7465 41.2306 85.0226 40.0715 81.6177 40.0715C77.9404 40.0715 75.1484 41.4351 73.1736 44.1622L73.3098 44.2986H73.5141V40.5488H70.8583V66.8655H73.5141V50.7755C73.5141 48.2529 74.2632 46.2757 75.6932 44.844C77.1233 43.3441 79.0981 42.5941 81.5496 42.5941C84.0692 42.5941 86.0441 43.4123 87.5422 45.1167C88.9723 46.753 89.6532 48.7983 89.6532 51.3209V66.8655H92.241V66.6609L92.1048 66.5928Z" fill="white"/>
<path d="M109.334 42.8669H102.32V61.3431C102.32 63.4566 103.069 64.4793 104.567 64.4793H106.134V66.5928H104.976C101.707 66.5928 100.073 64.9565 100.073 61.5476V33.3901H102.32V40.6852H109.334V42.8669Z" fill="white"/>
<path d="M109.334 42.8669V42.6623H102.115V61.3431C102.115 62.434 102.32 63.2521 102.728 63.7975C103.137 64.3429 103.75 64.6838 104.567 64.6838H105.929V66.3883H104.975C103.409 66.3883 102.183 65.9792 101.434 65.1611C100.685 64.3429 100.277 63.1839 100.277 61.5476V33.5947H102.115V40.8897H109.129V42.7987L109.334 42.8669H109.538V40.5488H102.524V33.2538H99.8682V61.6158C99.8682 63.3203 100.277 64.6157 101.162 65.502C102.047 66.3883 103.273 66.7974 104.975 66.7974H106.337V64.2748H104.635C103.954 64.2748 103.477 64.0702 103.137 63.593C102.796 63.1157 102.592 62.3658 102.592 61.3431V43.0714H109.606V42.8669H109.334Z" fill="white"/>
<path d="M140.113 53.2299C140.113 53.7072 140.045 54.0481 139.977 54.389H116.484C116.62 57.5933 117.709 60.1159 119.684 62.0249C121.659 63.9339 124.247 64.8884 127.379 64.8884C129.013 64.8884 130.716 64.6157 132.418 64.0702C134.325 63.4566 135.823 62.6385 136.845 61.6158L138.479 63.1839C135.959 65.7747 132.282 67.0019 127.379 67.0019C123.429 67.0019 120.229 65.7747 117.777 63.2521C115.326 60.7977 114.1 57.5252 114.1 53.5708C114.1 49.6847 115.326 46.4803 117.709 43.9577C120.161 41.4352 123.293 40.1398 127.175 40.1398C130.92 40.1398 133.985 41.367 136.436 43.8214C138.888 46.4121 140.113 49.4802 140.113 53.2299ZM137.73 52.2755C137.458 49.2756 136.368 46.8894 134.461 45.0486C132.555 43.2078 130.103 42.2533 127.175 42.2533C124.179 42.2533 121.727 43.2078 119.82 45.0486C117.914 46.8894 116.824 49.2756 116.484 52.2755H137.73Z" fill="white"/>
<path d="M140.114 53.2299H139.91C139.91 53.7072 139.841 54.0481 139.773 54.3208L139.978 54.389V54.1844H116.28V54.389C116.416 57.5933 117.573 60.2523 119.548 62.1613C121.523 64.1384 124.179 65.0929 127.38 65.0929C129.082 65.0929 130.784 64.8202 132.487 64.2748C134.394 63.6612 135.892 62.843 136.913 61.7522L136.777 61.6158L136.641 61.7522L138.275 63.3203L138.411 63.1839L138.275 63.0476C135.824 65.5702 132.214 66.8655 127.311 66.8655C123.43 66.8655 120.229 65.6383 117.846 63.1839C115.394 60.7295 114.169 57.5933 114.169 53.639C114.169 49.821 115.394 46.6167 117.778 44.1623C120.161 41.7079 123.226 40.4125 127.039 40.4125C130.784 40.4125 133.781 41.6397 136.164 44.0259C138.548 46.4121 139.773 49.4802 139.773 53.1618H140.182C140.182 49.3438 138.956 46.2076 136.437 43.7532C133.985 41.2988 130.784 40.0034 126.971 40.0034C123.089 40.0034 119.821 41.2988 117.437 43.8896C114.986 46.4803 113.76 49.7529 113.76 53.639C113.76 57.6615 114.986 60.9341 117.505 63.4566C120.025 65.9792 123.294 67.2746 127.311 67.2746C132.214 67.2746 136.028 65.9792 138.548 63.3885L138.684 63.2521L136.709 61.4113L136.573 61.5477C135.619 62.5703 134.189 63.3885 132.283 64.0021C130.58 64.5475 128.946 64.8202 127.311 64.8202C124.179 64.8202 121.659 63.8657 119.753 61.9567C117.846 60.0477 116.756 57.5933 116.62 54.389H116.416V54.5935H140.046L140.114 54.4571C140.182 54.1163 140.25 53.7072 140.25 53.2299H140.114ZM137.73 52.2755H137.935C137.662 49.2756 136.573 46.8212 134.598 44.9122C132.623 43.0032 130.172 42.1169 127.107 42.1169C124.043 42.1169 121.591 43.0714 119.616 44.9122C117.642 46.8212 116.552 49.2756 116.28 52.2755V52.48H137.935V52.2755H137.73V52.0709H116.484V52.2755H116.688C116.961 49.3438 118.05 46.9576 119.957 45.1849C121.864 43.4123 124.247 42.4578 127.175 42.4578C130.103 42.4578 132.487 43.3441 134.326 45.1849C136.164 47.0258 137.254 49.3438 137.526 52.2755H137.73Z" fill="white"/>
<path d="M150.328 28.345H148.081V66.5928H150.328V28.345Z" fill="white"/>
<path d="M150.329 66.5929V66.3883H148.286V28.4814H150.125V66.5929H150.329V66.3883V66.5929H150.533V28.1405H147.877V66.7974H150.533V66.5929H150.329Z" fill="white"/>
<path d="M183.288 53.2299C183.288 53.7072 183.22 54.0481 183.152 54.389H159.658C159.794 57.5933 160.884 60.1159 162.927 62.0249C164.902 63.9339 167.489 64.8884 170.622 64.8884C172.256 64.8884 173.959 64.6157 175.661 64.0702C177.568 63.4566 179.066 62.6385 180.019 61.6158L181.654 63.1839C179.202 65.7747 175.457 67.0019 170.554 67.0019C166.604 67.0019 163.403 65.7747 160.952 63.2521C158.5 60.7977 157.275 57.5252 157.275 53.5708C157.275 49.6847 158.5 46.4803 160.952 43.9577C163.335 41.4352 166.536 40.1398 170.349 40.1398C174.095 40.1398 177.227 41.367 179.611 43.8214C181.994 46.4121 183.288 49.4802 183.288 53.2299ZM180.836 52.2755C180.564 49.2756 179.475 46.8894 177.568 45.0486C175.661 43.2078 173.21 42.2533 170.213 42.2533C167.217 42.2533 164.765 43.2078 162.859 45.0486C160.952 46.8894 159.862 49.2756 159.522 52.2755H180.836Z" fill="white"/>
<path d="M183.287 53.2299H183.083C183.083 53.7072 183.015 54.0481 182.947 54.3208L183.151 54.389V54.1844H159.453V54.389C159.589 57.5933 160.747 60.2523 162.722 62.1613C164.765 64.1384 167.353 65.0929 170.553 65.0929C172.256 65.0929 173.958 64.8202 175.66 64.2748C177.635 63.6612 179.065 62.843 180.087 61.7522L179.951 61.6158L179.814 61.7522L181.449 63.3203L181.585 63.1839L181.449 63.0476C178.997 65.5702 175.388 66.8655 170.485 66.8655C166.603 66.8655 163.403 65.6383 161.019 63.1839C158.636 60.7295 157.41 57.5933 157.342 53.639C157.342 49.821 158.568 46.6167 160.951 44.1623C163.335 41.7079 166.399 40.4125 170.213 40.4125C173.958 40.4125 176.954 41.6397 179.406 44.0259C181.789 46.4121 183.015 49.4802 183.015 53.1618H183.424C183.424 49.3438 182.198 46.2076 179.678 43.7532C177.227 41.2988 174.026 40.0034 170.213 40.0034C166.331 40.0034 163.062 41.2988 160.679 43.8896C158.227 46.4803 157.002 49.7529 157.002 53.639C157.002 57.6615 158.227 60.9341 160.747 63.4566C163.267 65.9792 166.535 67.2746 170.553 67.2746C175.456 67.2746 179.27 65.9792 181.789 63.3885L181.925 63.2521L179.951 61.4113L179.814 61.5477C178.861 62.5703 177.431 63.3885 175.524 64.0021C173.822 64.5475 172.187 64.8202 170.553 64.8202C167.421 64.8202 164.901 63.8657 162.994 61.9567C161.088 60.0477 159.998 57.5933 159.862 54.389H159.658V54.5935H183.287L183.356 54.4571C183.424 54.1163 183.492 53.7072 183.492 53.2299H183.287ZM180.836 52.2755H181.04C180.768 49.2756 179.678 46.8212 177.703 44.9122C175.797 43.0032 173.277 42.1169 170.213 42.1169C167.216 42.1169 164.697 43.0714 162.722 44.9122C160.747 46.8212 159.658 49.2756 159.317 52.2755V52.48H181.04V52.2755H180.836V52.0709H159.589V52.2755H159.794C160.066 49.3438 161.156 46.9576 163.062 45.1849C164.969 43.4123 167.353 42.4578 170.281 42.4578C173.209 42.4578 175.592 43.3441 177.431 45.1849C179.27 47.0258 180.359 49.3438 180.632 52.2755H180.836Z" fill="white"/>
<path d="M211.957 66.5928H209.233L198.474 54.6617L192.345 61.2749V66.5928H190.098V28.345H192.345V58.4796L209.029 40.2761H211.753L199.768 53.2299L211.957 66.5928Z" fill="white"/>
<path d="M211.957 66.5929V66.3883H209.369L198.473 54.3208L192.14 61.2068V66.3883H190.302V28.4814H192.14V58.9569L209.165 40.4807H211.276L199.495 53.23L211.821 66.7292L211.957 66.5929V66.3883V66.5929L212.093 66.4565L200.04 53.23L212.161 40.0716H208.96L192.549 57.9343V28.1405H189.893V66.7974H192.549V61.3432L198.473 54.9344L209.165 66.7974H212.365L212.093 66.4565L211.957 66.5929Z" fill="white"/>
<path d="M229.185 42.8669H222.171V61.3431C222.171 63.4566 222.92 64.4793 224.419 64.4793H225.985V66.5928H224.827C221.558 66.5928 219.924 64.9565 219.924 61.5476V33.3901H222.171V40.6852H229.185V42.8669Z" fill="white"/>
<path d="M229.185 42.8669V42.6623H222.035V61.3431C222.035 62.434 222.239 63.2521 222.648 63.7975C223.056 64.3429 223.669 64.6838 224.486 64.6838H225.848V66.3883H224.895C223.329 66.3883 222.171 65.9792 221.354 65.1611C220.605 64.3429 220.196 63.1839 220.196 61.5476V33.5947H222.035V40.8897H229.049V42.7987L229.185 42.8669H229.389V40.5488H222.443V33.2538H219.788V61.6158C219.788 63.3203 220.196 64.6157 221.081 65.502C221.967 66.3883 223.192 66.7974 224.895 66.7974H226.257V64.2748H224.486C223.805 64.2748 223.329 64.0702 222.988 63.593C222.648 63.1157 222.443 62.3658 222.443 61.3431V43.0714H229.457V42.8669H229.185Z" fill="white"/>
</svg>
