<?xml version="1.0" standalone="no"?>
<!DOCTYPE svg PUBLIC "-//W3C//DTD SVG 20010904//EN"
 "http://www.w3.org/TR/2001/REC-SVG-20010904/DTD/svg10.dtd">
<svg version="1.0" xmlns="http://www.w3.org/2000/svg"
 width="880.000000pt" height="880.000000pt" viewBox="0 0 880.000000 880.000000"
 preserveAspectRatio="xMidYMid meet">
<metadata>
Created by potrace 1.14, written by Peter Selinger 2001-2017
</metadata>
<g transform="translate(0.000000,880.000000) scale(0.100000,-0.100000)"
fill="#000000" stroke="none">
<path d="M3685 8784 c-8 -9 -15 -27 -16 -42 0 -15 -2 -37 -5 -49 -4 -22 -1
-23 79 -24 45 -1 93 -3 107 -4 14 -1 66 -5 115 -10 50 -4 99 -9 110 -11 31 -6
94 -13 160 -19 33 -3 76 -7 95 -10 19 -3 51 -7 70 -10 19 -3 46 -7 60 -10 14
-3 41 -8 60 -11 19 -4 42 -8 50 -9 42 -8 196 -50 285 -77 55 -17 105 -33 110
-34 19 -4 150 -55 190 -73 22 -10 60 -26 85 -34 123 -42 480 -207 500 -232 7
-8 17 -15 22 -15 5 0 65 -33 134 -72 69 -40 134 -77 145 -83 10 -5 19 -13 19
-17 0 -5 5 -8 10 -8 22 0 319 -209 426 -299 17 -14 55 -46 84 -71 158 -134
415 -409 535 -574 11 -15 41 -56 68 -91 26 -35 47 -68 47 -73 0 -6 3 -12 8
-14 11 -5 52 -66 52 -78 0 -5 5 -10 10 -10 6 0 10 -6 10 -14 0 -8 3 -16 8 -18
7 -3 56 -72 77 -108 12 -22 115 -197 130 -222 37 -62 102 -178 113 -203 8 -16
20 -41 27 -55 7 -14 34 -77 59 -140 26 -63 51 -123 56 -132 6 -10 10 -27 10
-37 0 -11 5 -23 10 -26 6 -3 10 -16 10 -29 0 -12 4 -26 8 -32 5 -5 14 -29 22
-54 7 -25 19 -65 27 -90 16 -48 78 -306 87 -355 3 -16 12 -70 21 -120 9 -49
18 -103 19 -120 2 -16 6 -48 9 -70 34 -224 54 -734 34 -860 -4 -22 -9 -65 -12
-95 -3 -30 -11 -84 -16 -120 -6 -36 -13 -81 -16 -100 -4 -30 -22 -122 -38
-197 -3 -13 -7 -35 -10 -49 -17 -102 -153 -532 -177 -561 -6 -7 -7 -13 -3 -13
4 0 0 -11 -9 -25 -9 -14 -14 -25 -11 -25 3 0 -2 -15 -12 -33 -9 -17 -18 -34
-18 -37 -7 -27 -115 -246 -180 -365 -40 -75 -138 -226 -159 -247 -6 -7 -15
-20 -18 -28 -6 -16 -94 -135 -118 -160 -8 -9 -28 -33 -45 -54 -55 -70 -129
-150 -255 -276 -119 -118 -166 -162 -256 -238 -77 -64 -89 -74 -118 -95 -15
-12 -43 -34 -61 -49 -18 -16 -38 -28 -44 -28 -6 0 -11 -4 -11 -10 0 -5 -6 -10
-14 -10 -8 0 -16 -3 -18 -8 -4 -10 -106 -82 -116 -82 -5 0 -17 -9 -29 -19 -27
-25 -235 -146 -354 -206 -111 -56 -114 -57 -159 -81 -19 -10 -36 -17 -38 -16
-1 1 -16 -5 -32 -13 -17 -9 -30 -13 -30 -9 0 4 -6 1 -13 -5 -14 -11 -218 -90
-249 -96 -9 -2 -26 -9 -37 -15 -12 -6 -21 -8 -21 -5 0 3 -8 1 -18 -4 -11 -6
-30 -12 -43 -15 -13 -3 -55 -15 -94 -26 -38 -11 -81 -22 -95 -25 -14 -3 -35
-7 -47 -10 -13 -3 -33 -7 -45 -10 -13 -3 -34 -7 -48 -10 -14 -3 -36 -7 -50
-10 -13 -2 -40 -7 -60 -10 -20 -3 -47 -8 -60 -10 -14 -3 -52 -7 -85 -10 -33
-2 -87 -8 -120 -11 -122 -15 -523 -8 -645 10 -14 2 -52 7 -85 11 -33 3 -127
20 -210 37 -82 17 -158 31 -167 31 -10 1 -18 5 -18 9 0 4 -3 7 -7 6 -19 -5
-252 64 -348 102 -11 4 -58 23 -105 41 -47 18 -105 44 -130 56 -25 13 -50 23
-57 23 -6 0 -18 6 -25 13 -14 12 -37 25 -184 102 -110 57 -249 148 -364 238
-26 20 -124 101 -136 112 -6 5 -37 33 -69 60 -32 28 -80 69 -106 93 -26 23
-62 55 -81 70 -71 57 -221 202 -323 313 -107 117 -325 417 -325 447 0 7 -3 12
-7 12 -10 0 -43 58 -43 75 0 7 -4 15 -9 17 -5 2 -32 53 -61 113 -67 144 -74
159 -100 230 -12 33 -26 69 -30 80 -11 25 -49 145 -55 171 -2 10 -11 44 -19
74 -8 30 -17 66 -20 80 -3 14 -8 36 -11 50 -18 78 -29 138 -40 220 -2 19 -7
51 -10 70 -31 200 -36 578 -9 765 4 22 7 54 9 70 4 43 13 97 36 205 10 52 21
104 23 115 2 11 4 20 5 20 2 0 4 7 6 16 1 9 11 43 21 75 9 33 18 64 19 69 1 6
4 17 8 25 3 8 18 49 32 90 14 41 30 84 35 95 5 11 21 47 35 80 45 103 162 334
176 345 3 3 19 29 35 57 16 29 32 53 37 53 4 0 7 5 7 11 0 19 233 330 266 355
7 6 14 15 14 19 0 9 304 315 314 315 4 0 17 10 29 23 12 12 45 40 72 62 28 22
55 43 60 48 41 34 208 147 291 196 167 100 454 237 468 224 3 -4 6 -1 6 5 0 7
3 11 8 10 4 0 14 1 22 4 56 21 237 79 260 83 8 2 55 12 103 24 49 12 103 23
120 26 18 3 58 10 89 16 151 26 356 42 553 41 77 0 142 -1 145 -2 3 0 34 -3
70 -5 88 -6 170 -14 200 -20 14 -3 41 -7 60 -9 20 -3 47 -7 60 -10 14 -3 41
-8 60 -10 49 -8 232 -53 315 -78 39 -12 72 -22 75 -23 3 -1 12 -4 20 -8 8 -3
42 -15 75 -26 33 -12 69 -26 80 -31 11 -5 49 -21 85 -36 182 -74 524 -268 616
-349 7 -5 25 -19 40 -30 108 -76 400 -348 474 -441 97 -122 136 -170 141 -174
13 -11 181 -272 210 -327 53 -98 118 -231 145 -296 14 -34 31 -75 38 -92 18
-39 84 -235 89 -260 2 -11 7 -27 10 -35 6 -17 18 -64 24 -94 2 -11 10 -45 18
-75 19 -77 44 -213 50 -277 9 -93 23 -107 19 -19 -7 142 -14 249 -18 295 -14
143 -17 176 -21 190 -2 8 -7 31 -10 50 -3 19 -8 46 -10 60 -3 14 -7 34 -9 45
-2 11 -9 31 -14 45 -5 14 -10 27 -10 30 -8 57 -16 92 -23 96 -5 3 -9 16 -9 30
0 13 -4 32 -9 42 -5 9 -28 71 -51 137 -23 66 -47 134 -55 150 -7 17 -22 50
-33 75 -33 78 -95 202 -140 285 -41 73 -159 263 -172 275 -3 3 -19 25 -35 50
-16 25 -32 47 -35 50 -3 3 -21 25 -40 50 -118 152 -286 322 -450 456 -82 66
-373 264 -389 264 -5 0 -11 3 -13 8 -9 22 -366 204 -493 251 -64 24 -92 35
-127 51 -30 12 -192 60 -225 66 -15 3 -30 7 -35 10 -5 3 -18 7 -31 10 -51 9
-70 13 -89 20 -11 3 -30 7 -41 9 -12 2 -31 5 -42 8 -11 2 -41 7 -66 11 -25 4
-57 9 -70 11 -31 5 -131 16 -189 20 -63 5 -374 5 -435 0 -51 -3 -120 -10 -210
-20 -43 -5 -115 -16 -250 -40 -16 -3 -37 -8 -45 -10 -8 -2 -28 -7 -45 -9 -16
-3 -77 -19 -135 -36 -58 -17 -116 -33 -129 -36 -31 -6 -266 -92 -311 -112 -19
-9 -37 -17 -40 -18 -24 -6 -316 -149 -335 -164 -5 -4 -32 -20 -60 -35 -27 -16
-76 -45 -108 -67 -32 -21 -60 -38 -62 -38 -8 0 -232 -164 -300 -220 -228 -187
-435 -404 -596 -625 -105 -144 -211 -309 -286 -445 -37 -67 -77 -143 -78 -150
-1 -3 -16 -35 -33 -73 -18 -37 -31 -68 -30 -70 0 -1 -8 -20 -19 -42 -19 -38
-94 -240 -102 -277 -1 -4 -8 -25 -16 -47 -7 -22 -11 -42 -8 -45 4 -3 0 -6 -7
-6 -7 0 -11 -3 -7 -6 3 -3 -1 -23 -8 -44 -7 -21 -23 -83 -35 -137 -26 -119
-26 -117 -35 -173 -4 -25 -9 -54 -11 -65 -9 -43 -18 -122 -18 -157 -1 -21 -3
-38 -6 -38 -14 0 -20 -612 -7 -720 5 -36 10 -78 12 -95 2 -16 6 -43 9 -60 15
-68 24 -130 20 -137 -2 -4 0 -9 6 -13 5 -3 10 -16 10 -27 0 -26 65 -291 87
-356 17 -50 16 -50 28 -100 4 -18 12 -35 16 -38 5 -3 9 -15 9 -28 0 -12 3 -26
7 -30 4 -3 8 -12 9 -19 12 -62 162 -397 249 -552 76 -137 250 -407 267 -413 4
-2 8 -8 8 -13 0 -5 7 -17 14 -26 8 -10 47 -58 86 -108 107 -136 153 -187 295
-330 140 -140 238 -229 331 -301 33 -25 61 -50 62 -55 2 -5 8 -9 13 -9 5 0 35
-20 66 -44 73 -55 290 -196 302 -196 5 0 11 -3 13 -8 2 -4 28 -20 58 -36 162
-84 241 -124 300 -150 104 -45 121 -53 190 -79 36 -13 74 -28 85 -32 11 -5 22
-9 25 -10 3 -1 57 -18 121 -38 64 -21 125 -39 135 -42 11 -2 46 -11 79 -20 33
-9 70 -18 82 -20 11 -2 30 -6 42 -10 11 -3 33 -8 48 -11 16 -3 62 -12 103 -20
41 -9 93 -18 115 -20 22 -3 56 -7 75 -10 41 -6 79 -10 170 -18 36 -3 99 -9
140 -12 101 -9 405 -10 510 -1 123 10 276 30 345 44 17 3 39 7 50 9 69 10 92
14 110 19 11 3 58 14 105 24 47 11 110 27 140 36 81 23 88 25 110 29 38 9 295
98 348 122 28 12 52 21 52 19 0 -2 39 14 86 35 92 43 140 64 164 74 38 15 254
133 338 184 52 31 101 62 110 67 34 20 137 90 148 100 7 5 24 19 40 30 26 19
124 96 151 120 126 109 268 247 378 367 63 69 73 80 145 168 25 30 47 57 50
60 13 12 180 231 180 235 0 3 5 11 11 18 34 39 214 310 270 408 15 25 38 64
53 87 14 23 26 43 26 45 0 2 23 44 51 93 64 111 202 395 218 449 7 22 16 49
21 60 5 11 11 29 13 40 3 11 13 45 22 75 20 71 55 199 60 225 8 36 14 63 39
181 9 39 18 88 21 110 3 21 9 53 12 69 7 32 9 51 19 135 4 30 8 69 10 85 24
183 24 736 -1 863 -1 9 -6 46 -10 82 -4 36 -9 74 -11 85 -2 11 -7 34 -9 50 -3
17 -13 68 -22 115 -9 47 -17 94 -18 105 -1 11 -5 27 -8 35 -4 8 -20 71 -37
140 -30 117 -128 431 -150 475 -5 11 -21 49 -34 85 -68 181 -174 401 -301 625
-16 28 -33 59 -39 70 -71 134 -168 274 -287 413 -10 12 -19 26 -19 30 0 4 -10
18 -22 32 -13 14 -48 54 -78 90 -51 60 -81 94 -153 174 -101 110 -284 288
-387 375 -14 11 -38 32 -55 46 -119 102 -421 315 -445 315 -5 0 -10 4 -10 8 0
5 -18 17 -40 28 -22 10 -40 22 -40 27 0 4 -4 7 -10 7 -5 0 -31 13 -57 28 -142
84 -580 312 -598 312 -6 0 -220 73 -255 87 -8 4 -17 7 -20 8 -3 1 -12 5 -20 8
-43 19 -284 86 -330 91 -14 2 -43 8 -65 14 -22 6 -56 13 -76 16 -20 3 -42 8
-50 10 -8 3 -32 8 -54 10 -22 3 -51 8 -65 11 -14 3 -43 7 -65 10 -46 7 -80 13
-80 15 0 0 -22 3 -50 5 -27 2 -59 6 -70 8 -11 3 -54 8 -95 12 -41 4 -84 9 -95
12 -11 3 -127 6 -258 8 -200 3 -239 1 -252 -11z"/>
<path d="M5000 5965 c-30 -6 -77 -22 -103 -33 -56 -25 -163 -127 -173 -165 -3
-15 -10 -27 -14 -27 -4 0 -10 -10 -13 -22 -3 -13 -10 -41 -16 -63 -30 -112 -5
-231 71 -338 31 -44 27 -70 -20 -139 -16 -24 -88 -142 -161 -263 -72 -121
-135 -225 -139 -230 -5 -6 -11 -20 -14 -31 -4 -18 8 -29 79 -73 47 -28 88 -51
92 -51 3 0 33 46 66 101 33 56 70 118 82 138 13 20 26 43 30 51 4 8 40 70 80
138 40 68 73 128 73 133 0 5 5 9 10 9 6 0 10 4 10 10 0 5 8 19 17 30 14 16 25
19 63 14 91 -11 103 -11 153 -2 111 21 237 112 288 209 13 24 23 46 24 49 0 3
7 29 14 59 44 177 -46 370 -215 462 -33 17 -60 31 -61 30 -2 0 -4 -1 -5 0 -51
15 -158 17 -218 4z"/>
<path d="M2758 5385 c-2 -2 -28 -6 -58 -8 -200 -19 -355 -177 -367 -377 -9
-132 31 -241 121 -333 50 -52 162 -117 201 -117 9 0 25 -5 36 -10 13 -8 19 -7
19 0 0 7 6 8 16 2 22 -12 127 4 181 28 25 11 53 20 62 20 9 0 74 -57 145 -125
l130 -125 68 72 c62 65 82 98 60 98 -7 0 -136 128 -222 219 -33 35 -34 46 -14
95 23 56 27 203 7 263 -46 135 -149 241 -268 277 -31 9 -114 24 -117 21z"/>
<path d="M3888 4465 c-2 -2 -19 -7 -38 -10 -70 -12 -212 -73 -264 -115 -50
-39 -146 -139 -173 -180 -36 -55 -83 -152 -83 -171 0 -8 -5 -20 -12 -27 -7 -7
-9 -12 -6 -12 3 0 1 -21 -6 -47 -20 -76 -18 -222 4 -311 22 -86 85 -221 125
-267 134 -154 248 -227 425 -272 8 -2 33 -6 55 -8 22 -2 55 -6 73 -8 17 -2 32
-1 32 2 0 3 18 5 41 4 47 -1 196 32 216 49 7 6 13 8 13 5 0 -8 110 52 151 83
144 106 261 295 285 460 7 49 7 193 0 225 -52 245 -185 424 -391 529 -104 53
-199 74 -332 74 -61 0 -113 -1 -115 -3z"/>
<path d="M5857 3994 c-1 -1 -22 -5 -47 -9 -103 -14 -230 -107 -280 -205 -24
-47 -46 -60 -89 -55 -18 2 -67 7 -109 10 -43 3 -95 8 -117 10 -22 3 -69 8
-105 10 -36 3 -77 7 -93 9 -15 2 -30 0 -32 -4 -3 -4 -7 -38 -10 -76 -4 -38 -8
-81 -10 -96 -2 -16 0 -28 3 -29 4 0 24 -2 44 -4 69 -6 173 -16 218 -22 25 -3
65 -7 90 -8 61 -4 122 -15 142 -26 9 -5 29 -41 44 -81 15 -40 31 -74 36 -76 4
-2 8 -9 8 -16 0 -16 67 -84 110 -111 35 -22 127 -56 165 -61 41 -6 145 -5 155
1 5 3 19 8 30 10 25 5 92 36 106 50 6 5 27 23 47 39 20 16 48 46 62 66 28 40
75 154 75 182 0 10 4 18 9 18 18 0 8 95 -16 170 -49 145 -138 241 -268 285
-38 13 -160 27 -168 19z"/>
<path d="M3025 3545 c-46 -21 -579 -195 -597 -195 -9 0 -27 13 -40 29 -49 58
-143 119 -213 138 -43 12 -165 11 -213 -1 -67 -18 -139 -58 -190 -106 -37 -35
-97 -135 -107 -179 -3 -9 -12 -43 -20 -76 -16 -55 -16 -72 -1 -135 20 -90 94
-196 173 -251 158 -110 382 -92 525 42 79 75 125 173 132 283 2 40 7 49 30 61
14 8 29 14 31 15 8 1 38 11 78 26 20 8 37 11 37 8 0 -4 7 -1 15 6 8 7 15 10
15 6 0 -4 13 0 30 9 16 8 32 15 35 14 8 -1 346 112 368 123 13 6 15 13 8 21
-5 7 -9 14 -9 17 2 8 -44 145 -51 152 -3 4 -19 1 -36 -7z"/>
<path d="M4237 2824 c-26 -7 -50 -12 -52 -13 -3 -1 -6 -1 -7 -2 -2 0 -11 -2
-21 -4 -28 -5 -30 -11 -19 -47 6 -18 13 -46 16 -63 2 -16 9 -52 16 -80 6 -27
14 -61 16 -75 3 -14 12 -54 21 -90 8 -36 18 -88 20 -116 5 -47 3 -53 -22 -70
-31 -21 -101 -89 -126 -121 -9 -11 -28 -49 -42 -84 -22 -55 -26 -76 -23 -149
3 -90 30 -182 66 -232 11 -15 20 -31 20 -35 1 -15 106 -92 151 -111 65 -28
168 -44 235 -38 166 17 330 167 363 331 10 52 6 178 -6 199 -4 6 -8 16 -9 21
-1 6 -11 31 -23 56 -41 87 -132 165 -224 194 -127 40 -133 43 -145 83 -27 96
-57 221 -67 281 -3 19 -8 37 -10 41 -2 4 -7 20 -10 36 -13 75 -16 88 -21 96
-6 10 -37 7 -97 -8z"/>
</g>
</svg>
